<svg xmlns="http://www.w3.org/2000/svg" width="163" height="43" viewBox="0 0 163 43"><defs><style>.a{fill:#fff;}</style></defs><g transform="translate(-1843 103)"><g transform="translate(1951.333 -68.508)"><path class="a" d="M174.8,62.915h-1.271a.208.208,0,0,1-.191-.2V59.06c0-.665-.127-.864-.636-.864a1.848,1.848,0,0,0-.763.2v4.387q0,.2-.191.2h-1.271a.208.208,0,0,1-.191-.2V59.126c0-.665-.127-.864-.572-.864a2.556,2.556,0,0,0-.763.266v4.254q0,.2-.191.2h-1.271a.208.208,0,0,1-.191-.2V57.066q0-.2.191-.2h1.144q.191,0,.191.2v.266a2.513,2.513,0,0,1,1.526-.532,1.264,1.264,0,0,1,1.208.532,3.054,3.054,0,0,1,1.653-.532c1.335,0,1.78.931,1.78,2.326v3.656C175.055,62.848,174.928,62.915,174.8,62.915Z" transform="translate(-167.3 -56.667)"/><path class="a" d="M188.877,62.848h-1.144q-.191,0-.191-.2v-.2a2.058,2.058,0,0,1-1.462.465,1.665,1.665,0,0,1-1.78-1.861v-.066c0-1.263.763-1.795,2.543-1.795h.572v-.4c0-.6-.318-.731-.763-.731-.636,0-1.4.066-1.716.066h-.064q-.191,0-.191-.2v-.864c0-.133.064-.2.191-.266a10.384,10.384,0,0,1,1.78-.2c1.462,0,2.416.6,2.416,2.193v3.855Q189.067,62.848,188.877,62.848Zm-1.4-2.592h-.572c-.7,0-.89.266-.89.8v.066c0,.465.191.532.636.532a1.747,1.747,0,0,0,.826-.266v-1.13Z" transform="translate(-173.494 -56.6)"/><path class="a" d="M201.831,62.881H200.56a.208.208,0,0,1-.191-.2V59.093c0-.731-.127-1-.763-1a1.836,1.836,0,0,0-.953.332v4.254q0,.2-.191.2h-1.271a.208.208,0,0,1-.191-.2V56.966q0-.2.191-.2h1.144q.191,0,.191.2v.266a2.591,2.591,0,0,1,1.653-.532c1.462,0,1.843,1.063,1.843,2.459v3.589C202.085,62.815,201.958,62.881,201.831,62.881Z" transform="translate(-178.121 -56.634)"/><path class="a" d="M214.377,62.848h-1.144q-.191,0-.191-.2v-.2a2.058,2.058,0,0,1-1.462.465,1.665,1.665,0,0,1-1.78-1.861v-.066c0-1.263.763-1.795,2.543-1.795h.572v-.4c0-.6-.318-.731-.763-.731-.636,0-1.4.066-1.716.066h-.064q-.191,0-.191-.2v-.864c0-.133.064-.2.191-.266a10.384,10.384,0,0,1,1.78-.2c1.462,0,2.416.6,2.416,2.193v3.855Q214.567,62.848,214.377,62.848Zm-1.462-2.592h-.572c-.7,0-.89.266-.89.8v.066c0,.465.191.532.636.532a1.747,1.747,0,0,0,.826-.266v-1.13Z" transform="translate(-182.784 -56.6)"/><path class="a" d="M227.612,57.963l-.318.133a1.679,1.679,0,0,1,.254.8v.066c0,1.4-.954,1.994-2.543,1.994a3.623,3.623,0,0,1-1.081-.133c-.127.066-.127.133-.127.266,0,.2.064.266.318.332l1.144.266c1.78.4,2.416.731,2.416,1.728v.066c0,1.2-.89,1.728-2.67,1.728-1.716,0-2.606-.6-2.606-1.728v-.066a1.426,1.426,0,0,1,.636-1.2,1.117,1.117,0,0,1-.509-1,1.181,1.181,0,0,1,.445-.931,1.916,1.916,0,0,1-.445-1.263V58.96c0-1.2.763-2.06,2.543-2.06h2.543a.28.28,0,0,1,.254.266v.6A.882.882,0,0,1,227.612,57.963Zm-1.653,5.384c0-.2-.127-.332-1.081-.532l-.763-.2a1.1,1.1,0,0,0-.191.731v.066c0,.4.254.532,1.017.532.826,0,1.017-.2,1.017-.532Zm-.064-4.52c0-.465-.191-.8-.89-.8s-.954.332-.954.8v.133c0,.4.127.731.954.731.7,0,.89-.266.89-.731Z" transform="translate(-187.375 -56.701)"/><path class="a" d="M240.158,60.322h-3.305c0,.6.254,1.2,1.081,1.2.636,0,1.589-.066,1.971-.066h0q.191,0,.191.2v.8c0,.2-.064.266-.191.266a6.487,6.487,0,0,1-2.1.266,2.465,2.465,0,0,1-2.606-2.792v-.731a2.536,2.536,0,0,1,2.606-2.858c1.716,0,2.543,1.2,2.543,2.858v.6C240.349,60.256,240.285,60.322,240.158,60.322Zm-1.462-1.13c0-.8-.381-1.2-.954-1.2s-.953.4-.953,1.2v.066l1.907-.066Z" transform="translate(-192.038 -56.6)"/><path class="a" d="M251.351,58.062h-.064a2.276,2.276,0,0,0-1.335.4v4.187q0,.2-.191.2h-1.271a.208.208,0,0,1-.191-.2V56.932q0-.2.191-.2H249.7q.191,0,.191.2v.2a2.164,2.164,0,0,1,1.4-.532q.191,0,.191.2v1C251.478,57.929,251.415,58.062,251.351,58.062Z" transform="translate(-196.811 -56.6)"/></g><path class="a" d="M49.02,17.22l-7.568-4.546a1.449,1.449,0,0,0-2.2,1.229l.013,1.674-6.659-.051c-.013,0-.019-.006-.026-.019L27.7,7.1A8.011,8.011,0,0,0,13.99,6.932L.949,28.12a5.9,5.9,0,0,0,5.041,9.1h.064l6.7-.07a3.161,3.161,0,1,0-.058-6.322h-.013l-4.6.051a.744.744,0,0,1-.651-1.127L19.457,10.223a1.5,1.5,0,0,1,1.354-.739,1.536,1.536,0,0,1,1.334.777l3.043,5.24h-.174a3.18,3.18,0,0,0-.425.025,10.528,10.528,0,0,0-9.605,10.639c-.026,5.634,3.778,10.244,9.038,10.951a2.9,2.9,0,0,0,.406.025H33.62a6.6,6.6,0,0,0,5.763-3.215,6.382,6.382,0,0,0,.11-6.507l-3.191-5.5a.036.036,0,0,1,.026-.051l2.933.032c0,.363-.006.726-.006,1.076a1.445,1.445,0,0,0,2.2,1.229l7.568-4.546A1.416,1.416,0,0,0,49.02,17.22Zm-16.935,13.6h-7.4c-2.276-.427-3.3-2.668-3.294-4.622a4.191,4.191,0,0,1,3.842-4.38h.006l3.629.019c.013,0,.026.006.026.019l4.222,7.271C33.781,30.208,32.853,30.825,32.086,30.819Z" transform="translate(1842.995 -104.144)"/><g transform="translate(1896.896 -103)"><path class="a" d="M95.052,37.2a11.5,11.5,0,0,1-7.826-3.139,11.462,11.462,0,0,1-2.624-3.75,12.175,12.175,0,0,1-.993-5.042,12.485,12.485,0,0,1,.973-5.081,11.5,11.5,0,0,1,2.585-3.75A11.215,11.215,0,0,1,90.843,14.1a11.752,11.752,0,0,1,4.293-.8,10.294,10.294,0,0,1,4.248.866,8.859,8.859,0,0,1,3.217,2.356V13.778h5.363V36.729H102.6V33.75a8.837,8.837,0,0,1-3.255,2.534A10.144,10.144,0,0,1,95.052,37.2Zm.877-4.864a7.014,7.014,0,0,0,2.759-.548,6.465,6.465,0,0,0,2.2-1.528,7.724,7.724,0,0,0,1.45-2.273,7.265,7.265,0,0,0,.535-2.789,7.263,7.263,0,0,0-1.985-5,6.506,6.506,0,0,0-2.2-1.509,7.274,7.274,0,0,0-5.537,0,7.3,7.3,0,0,0-2.224,1.49,6.687,6.687,0,0,0-1.489,2.235,7.265,7.265,0,0,0-.535,2.789,7.433,7.433,0,0,0,.535,2.808,6.82,6.82,0,0,0,1.489,2.273,6.88,6.88,0,0,0,5,2.05Z" transform="translate(-83.61 -4.832)"/><path class="a" d="M144.67,33.677a8.844,8.844,0,0,1-3.255,2.591,9.95,9.95,0,0,1-4.332.942,11.5,11.5,0,0,1-7.826-3.139,11.462,11.462,0,0,1-2.624-3.75,12.175,12.175,0,0,1-.993-5.042,12.485,12.485,0,0,1,.973-5.081,11.5,11.5,0,0,1,2.585-3.75,11.215,11.215,0,0,1,3.674-2.337,11.752,11.752,0,0,1,4.293-.8,9.751,9.751,0,0,1,4.248.923,9.1,9.1,0,0,1,3.217,2.489V13.781h5.363V36.147a13.17,13.17,0,0,1-.774,4.552,10.561,10.561,0,0,1-2.282,3.705,10.676,10.676,0,0,1-3.752,2.508,13.619,13.619,0,0,1-5.183.923,16.136,16.136,0,0,1-4.113-.49,12.6,12.6,0,0,1-3.32-1.375,11.6,11.6,0,0,1-2.585-2.082,13.058,13.058,0,0,1-1.908-2.649l4.77-2.865a15.5,15.5,0,0,0,1.309,2,6.384,6.384,0,0,0,3.455,2.3,9.283,9.283,0,0,0,2.463.293,6.554,6.554,0,0,0,4.828-2,6.233,6.233,0,0,0,1.309-2.12,7.113,7.113,0,0,0,.458-2.508V33.677Zm-6.711-1.337a7.014,7.014,0,0,0,2.759-.548,6.465,6.465,0,0,0,2.2-1.528,7.725,7.725,0,0,0,1.45-2.273,7.266,7.266,0,0,0,.535-2.789,7.263,7.263,0,0,0-1.986-5,6.507,6.507,0,0,0-2.2-1.509,7.274,7.274,0,0,0-5.537,0,7.3,7.3,0,0,0-2.224,1.49,6.687,6.687,0,0,0-1.489,2.235,7.265,7.265,0,0,0-.535,2.789,7.433,7.433,0,0,0,.535,2.808,6.82,6.82,0,0,0,1.489,2.273,6.88,6.88,0,0,0,5,2.05Z" transform="translate(-98.546 -4.836)"/><path class="a" d="M167.61,3.336a3.273,3.273,0,0,1,.915-2.413A3.322,3.322,0,0,1,170.988,0a3.284,3.284,0,0,1,2.482.923,3.339,3.339,0,0,1,.9,2.413,3.247,3.247,0,0,1-.9,2.394,3.885,3.885,0,0,1-4.983,0A3.287,3.287,0,0,1,167.61,3.336Zm.677,5.609h5.4V31.9h-5.4Z" transform="translate(-113.46 0)"/><path class="a" d="M182.83,4.5h5.4V33.532h-5.4Z" transform="translate(-118.869 -1.635)"/><path class="a" d="M207.8,37.2a13.148,13.148,0,0,1-5.009-.923,11.569,11.569,0,0,1-3.874-2.534,11.4,11.4,0,0,1-2.5-3.788,12.164,12.164,0,0,1-.9-4.648,11.9,11.9,0,0,1,.935-4.711,11.682,11.682,0,0,1,2.566-3.807,12.308,12.308,0,0,1,3.836-2.553,11.9,11.9,0,0,1,4.745-.942,12.706,12.706,0,0,1,4.79.885,11.21,11.21,0,0,1,3.8,2.47,11.385,11.385,0,0,1,2.482,3.75,12.254,12.254,0,0,1,.9,4.711v2.005H200.658a6.779,6.779,0,0,0,2.424,3.922,7.345,7.345,0,0,0,4.725,1.49,6.934,6.934,0,0,0,3.932-1.1,6.775,6.775,0,0,0,2.5-2.941l4.409,2.508a11.959,11.959,0,0,1-4.229,4.495A12.191,12.191,0,0,1,207.8,37.2Zm-.2-19.221a6.916,6.916,0,0,0-4.19,1.292,6.833,6.833,0,0,0-2.482,3.412h13.189a5.954,5.954,0,0,0-2.3-3.514A7.2,7.2,0,0,0,207.6,17.976Z" transform="translate(-123.378 -4.829)"/></g></g></svg>